<?xml version="1.0" standalone="no"?>
<!DOCTYPE svg PUBLIC "-//W3C//DTD SVG 20010904//EN"
 "http://www.w3.org/TR/2001/REC-SVG-20010904/DTD/svg10.dtd">
<svg version="1.0" xmlns="http://www.w3.org/2000/svg"
 width="512.000000pt" height="512.000000pt" viewBox="0 0 512.000000 512.000000"
 preserveAspectRatio="xMidYMid meet">
<metadata>
Created by potrace 1.14, written by Peter Selinger 2001-2017
</metadata>
<g transform="translate(0.000000,512.000000) scale(0.100000,-0.100000)"
fill="#000000" stroke="none">
<path d="M2380 5114 c-19 -2 -78 -9 -130 -15 -458 -51 -937 -255 -1305 -554
-114 -92 -294 -274 -384 -387 -231 -289 -417 -673 -495 -1024 -47 -208 -60
-333 -60 -574 0 -425 75 -750 258 -1125 134 -272 282 -479 498 -692 211 -209
404 -346 673 -478 252 -124 462 -191 746 -237 194 -31 554 -31 754 0 272 43
491 110 731 226 264 128 456 261 662 460 236 228 388 436 528 721 123 252 190
462 236 746 18 112 21 175 21 379 0 270 -15 402 -73 629 -82 327 -234 641
-442 919 -89 119 -302 339 -423 437 -352 286 -787 478 -1238 546 -125 19 -470
33 -557 23z m375 -484 c717 -68 1356 -509 1670 -1155 68 -139 122 -284 150
-405 10 -41 23 -81 28 -88 8 -10 -35 -59 -179 -203 -104 -104 -192 -189 -196
-189 -5 0 -8 26 -8 57 l0 58 137 137 c81 81 131 138 121 138 -39 0 -78 -26
-156 -103 -81 -79 -83 -81 -67 -42 9 22 19 47 22 55 9 23 -63 -48 -94 -93
l-28 -40 -11 69 c-48 284 -158 523 -349 759 -65 80 -109 123 -235 232 -105 91
-339 217 -495 268 -478 155 -987 85 -1400 -194 -600 -404 -854 -1147 -630
-1836 51 -156 177 -390 268 -495 109 -126 152 -170 232 -235 311 -251 639
-369 1030 -368 243 0 467 50 675 149 462 221 772 606 890 1104 11 47 20 97 20
113 0 15 5 27 10 27 6 0 10 -4 10 -9 0 -5 23 -34 51 -65 35 -39 74 -67 126
-93 65 -32 86 -37 162 -41 l88 -4 -14 -62 c-27 -117 -94 -302 -157 -431 -385
-786 -1233 -1251 -2098 -1150 -1145 134 -1966 1163 -1833 2297 132 1130 1132
1943 2260 1838z m10 -955 c412 -78 754 -382 879 -782 24 -79 55 -248 45 -257
-2 -2 -96 -9 -209 -15 -113 -7 -219 -14 -235 -16 l-31 -5 -16 84 c-47 251
-251 459 -499 512 -100 21 -251 14 -339 -15 -196 -67 -351 -221 -422 -421 -19
-56 -23 -84 -22 -200 0 -114 4 -145 23 -200 68 -197 227 -356 421 -420 89 -30
240 -37 338 -16 92 19 201 72 272 130 l55 46 62 -62 63 -63 258 258 c142 142
261 255 265 251 4 -4 7 -19 7 -33 0 -21 -51 -77 -245 -271 -195 -194 -242
-247 -233 -258 9 -11 57 32 240 215 187 186 228 222 223 198 -66 -313 -269
-598 -539 -757 -93 -55 -254 -114 -361 -133 -112 -19 -310 -19 -412 0 -350 66
-649 295 -808 615 -82 166 -115 308 -115 500 0 194 33 335 118 505 58 117 119
202 212 295 160 160 366 270 585 314 97 19 321 20 420 1z m1989 -766 c-2 -4 6
-11 18 -14 31 -10 88 -65 88 -86 0 -29 11 -48 25 -43 14 6 45 -42 45 -68 0
-17 -411 -428 -427 -428 -7 0 -28 8 -48 17 l-36 17 157 157 c152 152 155 156
128 163 -25 7 -39 -4 -176 -141 l-148 -148 -32 33 -33 32 144 144 c133 133
143 146 135 170 -9 26 -13 22 -159 -124 l-150 -150 -22 43 -22 42 216 217 216
216 43 -21 c24 -11 41 -24 38 -28z m198 -377 c-3 -21 -38 -63 -130 -155 -133
-132 -134 -132 -222 -129 -35 2 -35 2 155 192 l190 190 6 -34 c3 -19 4 -48 1
-64z m-48 -171 c-21 -36 -40 -54 -73 -71 l-46 -22 70 71 c38 39 71 71 73 71 2
0 -9 -22 -24 -49z"/>
</g>
</svg>
